<svg width="700" height="365" viewBox="0 0 700 365" fill="none" xmlns="http://www.w3.org/2000/svg">
<g clip-path="url(#clip0_95_76)">
<path fill-rule="evenodd" clip-rule="evenodd" d="M572.346 31.293C544.723 11.4889 505.845 3.52239 468.783 1.15548V353.646C482.797 350.616 507.053 342.679 520.815 337.978C520.815 337.978 512.81 258.43 520.815 228.912C528.82 199.395 565.842 212.903 581.852 228.912C597.862 244.922 608.368 277.618 608.368 277.618C625.192 261.462 641.823 244.274 656.2 228.912L572.346 31.293ZM577.349 180.383H520.815C520.815 180.383 508.307 82.3238 520.815 74.8192C533.323 67.3146 533.823 64.0938 544.329 74.8192C554.836 85.5446 577.349 180.383 577.349 180.383Z" fill="#341CBC"/>
<path d="M455.275 356.361V0.526444C434.941 -0.0816703 434.182 -0.400058 418.253 0.921006C418.253 0.921006 461.076 323.258 418.253 240.202C396.618 198.242 389.235 122.848 389.235 122.848H365.221C365.221 122.848 365.031 194.769 351.713 238.073C325.337 323.838 336.203 8.83245 336.203 8.83245C326.579 10.4115 306.05 15.7939 294.178 18.3894L315.691 361.931C344.549 365.264 369.223 364.995 369.223 364.995C369.223 364.995 349.882 286.761 382.231 282.445C415.25 278.039 410.748 362.836 410.748 362.836C426.697 361.441 434.973 360.144 455.275 356.361Z" fill="#341CBC"/>
<path d="M290.175 359.834L278.168 20.6671C269.29 22.7693 260.049 25.178 250.652 27.9319V352.83C266.149 355.875 276.599 358.012 290.175 359.834Z" fill="#341CBC"/>
<path fill-rule="evenodd" clip-rule="evenodd" d="M71.043 193.391C68.8827 234.894 97.559 296.453 97.559 296.453C105.181 300.066 117.817 305.584 132.58 311.735L103.062 200.395C103.062 200.395 148.59 221.063 158.596 238.073C168.602 255.084 185.112 332.609 185.112 332.609C202.936 339.316 219.454 345.066 230.639 348.082L195.618 204.398C195.618 204.398 233.492 152.993 239.145 114.343C243.783 82.6238 230.639 32.6986 230.639 32.6986C216.298 35.7298 188.614 48.8034 168.102 57.8089C147.589 66.8143 121.573 83.7934 111.567 89.3279C96.9139 126.45 73.31 149.838 71.043 193.391ZM170.103 196.393L116.57 165.374L133.581 117.845C133.581 117.845 145.108 103.073 158.596 96.3322C173.428 88.9196 190.788 75.4303 203.123 84.3249C212.887 91.3658 210.127 114.343 210.127 114.343L170.103 196.393Z" fill="#341CBC"/>
<path d="M65.0393 122.848L0 193.391L65.0393 277.618C65.0393 277.618 32.9287 228.247 35.0212 193.391C36.8152 163.506 65.0393 122.848 65.0393 122.848Z" fill="#341CBC"/>
<path d="M668.404 215.734C687.249 195.175 699.923 180.383 699.923 180.383C699.923 180.383 653.33 111.669 608.368 64.0938L668.404 215.734Z" fill="#341CBC"/>
</g>
<defs>
<clipPath id="clip0_95_76">
<rect width="699.923" height="365" fill="white"/>
</clipPath>
</defs>
</svg>
